<?plantuml 1.2026.2?><svg xmlns="http://www.w3.org/2000/svg" xmlns:xlink="http://www.w3.org/1999/xlink" contentStyleType="text/css" data-diagram-type="DESCRIPTION" height="459px" preserveAspectRatio="none" style="width:1152px;height:459px;background:#FFFFFF;" version="1.1" viewBox="0 0 1152 459" width="1152px" zoomAndPan="magnify"><title>Tic-Tac-Toe &#8212; Component Architecture</title><defs/><g><g class="title" data-source-line="1"><text fill="#000000" font-family="sans-serif" font-size="14" font-weight="bold" lengthAdjust="spacing" textLength="291.1426" x="423.8039" y="23.5352">Tic-Tac-Toe &#8212; Component Architecture</text></g><!--cluster src/--><g class="cluster" data-qualified-name="src." data-source-line="8" id="ent0003"><path d="M425.69,43.4883 L456.3375,43.4883 A3.75,3.75 0 0 1 458.8375,45.9883 L465.8375,65.9766 L878.69,65.9766 A2.5,2.5 0 0 1 881.19,68.4766 L881.19,450.2483 A2.5,2.5 0 0 1 878.69,452.7483 L425.69,452.7483 A2.5,2.5 0 0 1 423.19,450.2483 L423.19,45.9883 A2.5,2.5 0 0 1 425.69,43.4883" fill="none" style="stroke:#000000;stroke-width:1.5;"/><line style="stroke:#000000;stroke-width:1.5;" x1="423.19" x2="465.8375" y1="65.9766" y2="65.9766"/><text fill="#000000" font-family="sans-serif" font-size="14" font-weight="bold" lengthAdjust="spacing" textLength="29.6475" x="427.19" y="59.0234">src/</text></g><!--entity main--><g class="entity" data-qualified-name="src..main" data-source-line="9" id="ent0004"><rect fill="#F1F1F1" height="52.9766" rx="2.5" ry="2.5" style="stroke:#181818;stroke-width:0.5;" width="70.3398" x="579.02" y="78.4883"/><text fill="#000000" font-family="sans-serif" font-size="14" lengthAdjust="spacing" textLength="50.3398" x="589.02" y="102.0234">main.ts</text><text fill="#000000" font-family="sans-serif" font-size="14" lengthAdjust="spacing" textLength="43.873" x="589.02" y="118.5117">(entry)</text></g><!--entity game--><g class="entity" data-qualified-name="src..game" data-source-line="10" id="ent0005"><rect fill="#F1F1F1" height="52.9766" rx="2.5" ry="2.5" style="stroke:#181818;stroke-width:0.5;" width="122.4092" x="552.99" y="237.0083"/><text fill="#000000" font-family="sans-serif" font-size="14" lengthAdjust="spacing" textLength="69.0771" x="562.99" y="260.5434">TicTacToe</text><text fill="#000000" font-family="sans-serif" font-size="14" lengthAdjust="spacing" textLength="102.4092" x="562.99" y="277.0317">(pure logic, TS)</text></g><!--entity ui--><g class="entity" data-qualified-name="src..ui" data-source-line="11" id="ent0006"><rect fill="#F1F1F1" height="52.9766" rx="2.5" ry="2.5" style="stroke:#181818;stroke-width:0.5;" width="125.916" x="439.23" y="383.7683"/><text fill="#000000" font-family="sans-serif" font-size="14" lengthAdjust="spacing" textLength="29.5381" x="449.23" y="407.3034">ui.ts</text><text fill="#000000" font-family="sans-serif" font-size="14" lengthAdjust="spacing" textLength="105.916" x="449.23" y="423.7917">(DOM bindings)</text></g><!--entity css--><g class="entity" data-qualified-name="src..css" data-source-line="12" id="ent0007"><rect fill="#F1F1F1" height="36.4883" rx="2.5" ry="2.5" style="stroke:#181818;stroke-width:0.5;" width="84.5449" x="731.92" y="86.7283"/><text fill="#000000" font-family="sans-serif" font-size="14" lengthAdjust="spacing" textLength="64.5449" x="741.92" y="110.2634">styles.css</text></g><!--entity Player--><g class="entity" data-qualified-name="Player" data-source-line="6" id="ent0002"><ellipse cx="177.1897" cy="75.2283" fill="#F1F1F1" rx="8" ry="8" style="stroke:#181818;stroke-width:0.5;"/><path d="M177.1897,83.2283 L177.1897,110.2283 M164.1897,91.2283 L190.1897,91.2283 M177.1897,110.2283 L164.1897,125.2283 M177.1897,110.2283 L190.1897,125.2283" fill="none" style="stroke:#181818;stroke-width:0.5;"/><text fill="#000000" font-family="sans-serif" font-size="14" lengthAdjust="spacing" textLength="40.3594" x="157.01" y="140.2634">Player</text></g><!--entity dom--><g class="entity" data-qualified-name="dom" data-source-line="15" id="ent0008"><path d="M149.809,241.3057 C153.4004,233.7511 158.6116,234.3773 163.158,240.3642 C166.6106,234.1245 172.9889,233.3338 177.4472,239.1746 C182.32,232.1185 189.817,233.3344 192.8236,241.1093 C197.7706,233.7878 201.986,234.3112 206.6699,241.3628 C212.5391,242.7537 214.0878,247.7244 210.4953,252.3958 C216.9631,254.4527 219.4434,260.5755 213.1932,265.2928 C218.0173,269.7836 215.5514,274.1337 210.3576,275.962 C214.4126,281.7527 213.1252,285.4279 206.7626,288.1444 C204.1645,295.3099 197.8959,296.6047 193.1258,290.3517 C189.0937,296.8625 182.206,299.0344 177.7631,290.7791 C173.2423,296.7448 167.7857,296.8183 164.3864,289.6379 C159.2948,296.8475 153.1195,296.744 149.4321,288.2968 C142.2703,286.5818 139.5879,283.1985 144.368,276.4001 C137.5484,275.3293 136.7984,269.5461 141.0404,265.1913 C136.5009,259.7786 137.3051,255.6114 143.9332,252.8073 C139.8486,246.7095 141.9018,241.2771 149.809,241.3057" fill="#F1F1F1" style="stroke:#181818;stroke-width:0.5;"/><text fill="#000000" font-family="sans-serif" font-size="14" lengthAdjust="spacing" textLength="33.4209" x="155.54" y="260.5434">DOM</text><text fill="#000000" font-family="sans-serif" font-size="14" lengthAdjust="spacing" textLength="43.3125" x="155.54" y="277.0317">(#app)</text></g><g class="entity" data-qualified-name="GMN17" data-source-line="28" id="ent0018"><path d="M900.64,220.2183 L900.64,306.771 L1145.7504,306.771 L1145.7504,230.2183 L1135.7504,220.2183 L900.64,220.2183" fill="#FEFFDD" style="stroke:#181818;stroke-width:0.5;"/><path d="M1135.7504,220.2183 L1135.7504,230.2183 L1145.7504,230.2183 L1135.7504,220.2183" fill="#FEFFDD" style="stroke:#181818;stroke-width:1;"/><text fill="#000000" font-family="sans-serif" font-size="13" lengthAdjust="spacing" textLength="177.582" x="906.64" y="237.7866">Discriminated-union Status:</text><text fill="#000000" font-family="sans-serif" font-size="13" lengthAdjust="spacing" textLength="215.8838" x="914.8666" y="253.0972">{kind:"in-progress", currentPlayer}</text><text fill="#000000" font-family="sans-serif" font-size="13" lengthAdjust="spacing" textLength="157.7075" x="914.8666" y="268.4077">{kind:"won", winner, line}</text><text fill="#000000" font-family="sans-serif" font-size="13" lengthAdjust="spacing" textLength="65.749" x="914.8666" y="283.7183">{kind:"tie"}</text><text fill="#000000" font-family="sans-serif" font-size="13" lengthAdjust="spacing" textLength="101.9561" x="906.64" y="299.0288">No DOM access.</text></g><!--link Player to dom--><g class="link" data-entity-1="ent0002" data-entity-2="ent0008" data-link-type="dependency" data-source-line="17" id="lnk9"><path d="M177.19,143.4683 C177.19,170.4183 177.19,200.3183 177.19,225.6183" fill="none" id="Player-to-dom" style="stroke:#181818;stroke-width:1;"/><polygon fill="#181818" points="177.19,231.6183,181.19,222.6183,177.19,226.6183,173.19,222.6183,177.19,231.6183" style="stroke:#181818;stroke-width:1;"/><text fill="#000000" font-family="sans-serif" font-size="13" lengthAdjust="spacing" textLength="101.9561" x="178.19" y="186.7866">click / keyboard</text></g><!--link dom to ui--><g class="link" data-entity-1="ent0008" data-entity-2="ent0006" data-link-type="dependency" data-source-line="18" id="lnk10"><path d="M140.45,272.9883 C89.15,286.4583 6,315.2283 40.19,353.7683 C66.23,383.1183 312.7584,399.5605 433.0684,405.9405" fill="none" id="dom-to-ui" style="stroke:#181818;stroke-width:1;"/><polygon fill="#181818" points="439.06,406.2583,430.2844,401.7873,434.067,405.9935,429.8608,409.7761,439.06,406.2583" style="stroke:#181818;stroke-width:1;"/><text fill="#000000" font-family="sans-serif" font-size="13" lengthAdjust="spacing" textLength="92.7012" x="41.19" y="350.3366">event handlers</text></g><!--link ui to dom--><g class="link" data-entity-1="ent0006" data-entity-2="ent0008" data-link-type="dependency" data-source-line="21" id="lnk13"><path d="M439.01,405.7283 C360.3,400.0083 232.02,385.9283 198.19,353.7683 C182.5,338.8483 177.916,320.5771 176.726,301.1071" fill="none" id="ui-to-dom" style="stroke:#181818;stroke-width:1;"/><polygon fill="#181818" points="176.36,295.1183,172.9165,304.3455,176.665,300.109,180.9016,303.8575,176.36,295.1183" style="stroke:#181818;stroke-width:1;"/><text fill="#000000" font-family="sans-serif" font-size="13" lengthAdjust="spacing" textLength="255.8804" x="199.19" y="350.3366">re-render squares + message + win line</text></g><!--link ui to game--><g class="link" data-entity-1="ent0006" data-entity-2="ent0005" data-link-type="dependency" data-source-line="19" id="lnk11"><path d="M565.58,394.9583 C587.33,386.6883 609.4,373.7883 622.19,353.7683 C634.18,335.0183 632.0262,315.1085 626.2462,296.1085" fill="none" id="ui-to-game" style="stroke:#181818;stroke-width:1;"/><polygon fill="#181818" points="624.5,290.3683,623.2925,300.1428,625.9552,295.1518,630.9462,297.8145,624.5,290.3683" style="stroke:#181818;stroke-width:1;"/><text fill="#000000" font-family="sans-serif" font-size="13" lengthAdjust="spacing" textLength="195.2856" x="629.43" y="350.3366">play(cell), reset(), board, status</text></g><!--link game to ui--><g class="link" data-entity-1="ent0005" data-entity-2="ent0006" data-link-type="dependency" data-source-line="20" id="lnk12"><path d="M552.49,278.3283 C521.19,288.7983 485.91,306.7183 467.19,336.7683 C457.96,351.5983 462.4663,364.4462 473.1963,378.6062" fill="none" id="game-to-ui" style="stroke:#181818;stroke-width:1;"/><polygon fill="#181818" points="476.82,383.3883,474.5725,373.7993,473.8002,379.4032,468.1963,378.6309,476.82,383.3883" style="stroke:#181818;stroke-width:1;"/><text fill="#000000" font-family="sans-serif" font-size="13" lengthAdjust="spacing" textLength="145.5581" x="468.19" y="350.3366">returns Result + Status</text></g><!--link main to game--><g class="link" data-entity-1="ent0004" data-entity-2="ent0005" data-link-type="dependency" data-source-line="23" id="lnk14"><path d="M614.19,131.8183 C614.19,160.8183 614.19,201.5983 614.19,230.6083" fill="none" id="main-to-game" style="stroke:#181818;stroke-width:1;"/><polygon fill="#181818" points="614.19,236.6083,618.19,227.6083,614.19,231.6083,610.19,227.6083,614.19,236.6083" style="stroke:#181818;stroke-width:1;"/><text fill="#000000" font-family="sans-serif" font-size="13" lengthAdjust="spacing" textLength="102.0386" x="615.19" y="186.7866">new TicTacToe()</text></g><!--link main to ui--><g class="link" data-entity-1="ent0004" data-entity-2="ent0006" data-link-type="dependency" data-source-line="24" id="lnk15"><path d="M649.71,118.9683 C674.6,129.8283 706.77,147.6783 726.19,173.2183 C763.48,222.2483 722.67,260.3883 763.19,306.7683 C787.85,334.9883 857.4,325.1683 833.19,353.7683 C799.6,393.4683 657.9259,404.5654 571.5859,407.7754" fill="none" id="main-to-ui" style="stroke:#181818;stroke-width:1;"/><polygon fill="#181818" points="565.59,407.9983,574.7324,411.6611,570.5865,407.8125,574.4352,403.6667,565.59,407.9983" style="stroke:#181818;stroke-width:1;"/><text fill="#000000" font-family="sans-serif" font-size="13" lengthAdjust="spacing" textLength="118.6187" x="764.19" y="268.5666">mount(root, game)</text></g><!--link main to dom--><g class="link" data-entity-1="ent0004" data-entity-2="ent0008" data-link-type="dependency" data-source-line="25" id="lnk16"><path d="M578.72,118.0483 C539.77,131.3583 475.42,153.5083 420.19,173.2183 C346.96,199.3583 267.352,228.8424 219.792,246.5724" fill="none" id="main-to-dom" style="stroke:#181818;stroke-width:1;"/><polygon fill="#181818" points="214.17,248.6683,224.0003,249.2725,218.855,246.9217,221.2058,241.7765,214.17,248.6683" style="stroke:#181818;stroke-width:1;"/><text fill="#000000" font-family="sans-serif" font-size="13" lengthAdjust="spacing" textLength="184.7358" x="421.19" y="186.7866">exposes window.__ttt for e2e</text></g><!--link game to GMN17--><g class="link" data-entity-1="ent0005" data-entity-2="ent0018" data-link-type="association" data-source-line="28" id="lnk19"><path d="M638.56,236.8383 C658.28,217.3883 687.9,192.5983 719.69,181.7183 C780.24,160.9983 801.48,166.6983 863.69,181.7183 C895.6,189.4183 928.3,204.6683 955.72,219.9283" fill="none" id="game-GMN17" style="stroke:#181818;stroke-width:1;stroke-dasharray:7,7;"/></g><?plantuml-src LLBBRjj03BplLn3gnKOa1-WnXm95S-q3jMzj4MnMj4nunLMNtBf64A0VqI_ibvGh9Qbx42HnXiFXGqaZmev2j_Fs98G_ltx3kpHEYP4LtkPm8CMW9QDpSYIUVFOZX6V6Liyca8tXUOXuGP63xzE9U82zZsBPFcZAy2dwCsRd9X-EVa1e98Vh1XuSm9VH4szKllBAbFDv_GsyG0rMq4oQHxDey6Hs8AQ1GWkxxS8R_8YLLsYHkFtu7kw9UtCW2wDGnQKwbaqGcOFsTe_EXPXA3uqbMUehFqthfg9z6frRB4FNlQd_S0CXKZZ2DHpnV9zyxbqDLxYGeVYZJkxWkO-OnLciGjMUWPDfhGB6k6vjQeAwiezPf0LHhqNSp7nHosYpPu7FA2KgNC5sOJt9BeOoTXcvDvFolNZJDTw88dN0Ls1BW4XiAwYpl7J3U8ANkQxM__2vz9WAwogdfEsSS84lPV7dbCIAMG5RzURkJbLXRql6rrQCazfbq71GIFldzToIX4mZiLVikyAK-AcZ6qC17kn--fk6k9jo6gmJQLe89LjxkkpXyP9tIcourMVCxTpaVx0IDZNm8K4z1n-22MwSZGggkxy0?></g></svg>