<?plantuml 1.2026.2?><svg xmlns="http://www.w3.org/2000/svg" xmlns:xlink="http://www.w3.org/1999/xlink" contentStyleType="text/css" data-diagram-type="DESCRIPTION" height="281px" preserveAspectRatio="none" style="width:363px;height:281px;background:#FFFFFF;" version="1.1" viewBox="0 0 363 281" width="363px" zoomAndPan="magnify"><title>Deployment &#8212; nginx static SPA</title><defs/><g><g class="title" data-source-line="1"><text fill="#000000" font-family="sans-serif" font-size="14" font-weight="bold" lengthAdjust="spacing" textLength="226.1807" x="61.5119" y="23.5352">Deployment &#8212; nginx static SPA</text></g><!--cluster web--><g class="cluster" data-qualified-name="web" data-source-line="6" id="ent0003"><polygon fill="none" points="16,163.9783,26,153.9783,259,153.9783,259,254.4683,249,264.4683,16,264.4683,16,163.9783" style="stroke:#181818;stroke-width:1;"/><line style="stroke:#181818;stroke-width:1;" x1="249" x2="259" y1="163.9783" y2="153.9783"/><line style="stroke:#181818;stroke-width:1;" x1="16" x2="249" y1="163.9783" y2="163.9783"/><line style="stroke:#181818;stroke-width:1;" x1="249" x2="249" y1="163.9783" y2="264.4683"/><text fill="#000000" font-family="sans-serif" font-size="14" font-weight="bold" lengthAdjust="spacing" textLength="70.3281" x="98.3359" y="180.5134">Container</text></g><!--entity nginx :80--><g class="entity" data-qualified-name="web.nginx .80" data-source-line="7" id="ent0004"><rect fill="#F1F1F1" height="46.4883" rx="2.5" ry="2.5" style="stroke:#181818;stroke-width:0.5;" width="105.3037" x="32.35" y="197.9783"/><rect fill="#F1F1F1" height="10" style="stroke:#181818;stroke-width:0.5;" width="15" x="117.6537" y="202.9783"/><rect fill="#F1F1F1" height="2" style="stroke:#181818;stroke-width:0.5;" width="4" x="115.6537" y="204.9783"/><rect fill="#F1F1F1" height="2" style="stroke:#181818;stroke-width:0.5;" width="4" x="115.6537" y="208.9783"/><text fill="#000000" font-family="sans-serif" font-size="14" lengthAdjust="spacing" textLength="65.3037" x="47.35" y="231.5134">nginx :80</text></g><!--entity dist--><g class="entity" data-qualified-name="web.dist" data-source-line="8" id="ent0005"><path d="M175.5,193.9783 L216.5,193.9783 A3.75,3.75 0 0 1 219,196.4783 L226,214.9783 L240.5,214.9783 A2.5,2.5 0 0 1 243,217.4783 L243,245.9666 A2.5,2.5 0 0 1 240.5,248.4666 L175.5,248.4666 A2.5,2.5 0 0 1 173,245.9666 L173,196.4783 A2.5,2.5 0 0 1 175.5,193.9783" fill="#F1F1F1" style="stroke:#181818;stroke-width:0.5;"/><line style="stroke:#181818;stroke-width:0.5;" x1="173" x2="226" y1="214.9783" y2="214.9783"/><text fill="#000000" font-family="sans-serif" font-size="14" lengthAdjust="spacing" textLength="32.5732" x="183" y="235.5134">dist/</text></g><!--entity browser--><g class="entity" data-qualified-name="browser" data-source-line="5" id="ent0002"><polygon fill="#F1F1F1" points="33.08,54.4883,43.08,44.4883,126.913,44.4883,126.913,80.9766,116.913,90.9766,33.08,90.9766,33.08,54.4883" style="stroke:#181818;stroke-width:0.5;"/><line style="stroke:#181818;stroke-width:0.5;" x1="116.913" x2="126.913" y1="54.4883" y2="44.4883"/><line style="stroke:#181818;stroke-width:0.5;" x1="33.08" x2="116.913" y1="54.4883" y2="54.4883"/><line style="stroke:#181818;stroke-width:0.5;" x1="116.913" x2="116.913" y1="54.4883" y2="90.9766"/><text fill="#000000" font-family="sans-serif" font-size="14" lengthAdjust="spacing" textLength="53.833" x="48.08" y="78.0234">Browser</text></g><!--entity Vite build--><g class="entity" data-qualified-name="Vite build" data-source-line="11" id="ent0006"><rect fill="#F1F1F1" height="46.4883" rx="2.5" ry="2.5" style="stroke:#181818;stroke-width:0.5;" width="105.0713" x="161.46" y="44.4883"/><rect fill="#F1F1F1" height="10" style="stroke:#181818;stroke-width:0.5;" width="15" x="246.5313" y="49.4883"/><rect fill="#F1F1F1" height="2" style="stroke:#181818;stroke-width:0.5;" width="4" x="244.5313" y="51.4883"/><rect fill="#F1F1F1" height="2" style="stroke:#181818;stroke-width:0.5;" width="4" x="244.5313" y="55.4883"/><text fill="#000000" font-family="sans-serif" font-size="14" lengthAdjust="spacing" textLength="65.0713" x="176.46" y="78.0234">Vite build</text></g><!--link Vite build to dist--><g class="link" data-entity-1="ent0006" data-entity-2="ent0005" data-link-type="dependency" data-source-line="11" id="lnk7"><path d="M213.1,91.4183 C212.02,118.7383 210.4358,158.5729 209.2958,187.5629" fill="none" id="Vite build-to-dist" style="stroke:#181818;stroke-width:1;"/><polygon fill="#181818" points="209.06,193.5583,213.4106,184.7224,209.2565,188.5621,205.4167,184.4081,209.06,193.5583" style="stroke:#181818;stroke-width:1;"/><text fill="#000000" font-family="sans-serif" font-size="13" lengthAdjust="spacing" textLength="142.3145" x="212.89" y="134.5466">multi-stage Dockerfile</text></g><!--link browser to nginx :80--><g class="link" data-entity-1="ent0002" data-entity-2="ent0004" data-link-type="dependency" data-source-line="12" id="lnk8"><path d="M80.75,91.4183 C81.7,120.1383 83.1227,163.3215 84.0627,191.8915" fill="none" id="browser-to-nginx :80" style="stroke:#181818;stroke-width:1;"/><polygon fill="#181818" points="84.26,197.8883,87.9619,188.7616,84.0956,192.891,79.9662,189.0247,84.26,197.8883" style="stroke:#181818;stroke-width:1;"/><text fill="#000000" font-family="sans-serif" font-size="13" lengthAdjust="spacing" textLength="33.1792" x="83.2" y="134.5466">HTTP</text></g><?plantuml-src JOuz2i9048NxESKZVT1IB0H_2aj1iH6BZJk9WvjTsHs98eA7y8IUn1XJsBtXUyFtLDGn5dnsuLQpLxoVB_XA_1L9ZSe1wzMKA9t4dqqqDTBHsD28hr0QbvZ81yl8PZ4qYMC6ar3ySa_cmQiHtxE62zm9sFqSuz5mtrvbS9OZCYj91rtlc-X1jDkACegBEBj7daywW37gYrF9subLkpuSJXnBSKozkcl-ATg7vMQp-W00?></g></svg>