<?plantuml 1.2026.2?><svg xmlns="http://www.w3.org/2000/svg" xmlns:xlink="http://www.w3.org/1999/xlink" contentStyleType="text/css" data-diagram-type="SEQUENCE" height="613px" preserveAspectRatio="none" style="width:837px;height:613px;background:#FFFFFF;" version="1.1" viewBox="0 0 837 613" width="837px" zoomAndPan="magnify"><title>Sequence &#8212; player makes a move</title><defs/><g><text fill="#000000" font-family="sans-serif" font-size="14" font-weight="bold" lengthAdjust="spacing" textLength="243.626" x="297.7512" y="28.5352">Sequence &#8212; player makes a move</text><rect fill="none" height="291.4395" style="stroke:#000000;stroke-width:1.5;" width="672.9023" x="157.2261" y="223.9082"/><rect fill="none" height="59.6211" style="stroke:#000000;stroke-width:1.5;" width="248.4668" x="167.2261" y="448.7266"/><g class="participant-lifeline" data-entity-uid="part1" data-qualified-name="User" id="part1-lifeline"><g><title>User</title><rect fill="#000000" fill-opacity="0.00000" height="413.3711" width="8" x="19.1826" y="118.9766"/><line style="stroke:#181818;stroke-width:0.5;stroke-dasharray:5,5;" x1="23" x2="23" y1="118.9766" y2="532.3477"/></g></g><g class="participant-lifeline" data-entity-uid="part2" data-qualified-name="Sq" id="part2-lifeline"><g><title>.square div</title><rect fill="#000000" fill-opacity="0.00000" height="413.3711" width="8" x="91.7954" y="118.9766"/><line style="stroke:#181818;stroke-width:0.5;stroke-dasharray:5,5;" x1="95.3652" x2="95.3652" y1="118.9766" y2="532.3477"/></g></g><g class="participant-lifeline" data-entity-uid="part3" data-qualified-name="UI" id="part3-lifeline"><g><title>ui.ts</title><rect fill="#000000" fill-opacity="0.00000" height="413.3711" width="8" x="194.9951" y="118.9766"/><line style="stroke:#181818;stroke-width:0.5;stroke-dasharray:5,5;" x1="198.2261" x2="198.2261" y1="118.9766" y2="532.3477"/></g></g><g class="participant-lifeline" data-entity-uid="part4" data-qualified-name="Game" id="part4-lifeline"><g><title>TicTacToe</title><rect fill="#000000" fill-opacity="0.00000" height="413.3711" width="8" x="480.3066" y="118.9766"/><line style="stroke:#181818;stroke-width:0.5;stroke-dasharray:5,5;" x1="483.7681" x2="483.7681" y1="118.9766" y2="532.3477"/></g></g><g class="participant participant-head" data-entity-uid="part1" data-qualified-name="User" id="part1-head"><text fill="#000000" font-family="sans-serif" font-size="14" lengthAdjust="spacing" textLength="30.3652" x="5" y="116.0234">User</text><ellipse cx="23.1826" cy="50.9883" fill="#E2E2F0" rx="8" ry="8" style="stroke:#181818;stroke-width:0.5;"/><path d="M23.1826,58.9883 L23.1826,85.9883 M10.1826,66.9883 L36.1826,66.9883 M23.1826,85.9883 L10.1826,100.9883 M23.1826,85.9883 L36.1826,100.9883" fill="none" style="stroke:#181818;stroke-width:0.5;"/></g><g class="participant participant-tail" data-entity-uid="part1" data-qualified-name="User" id="part1-tail"><text fill="#000000" font-family="sans-serif" font-size="14" lengthAdjust="spacing" textLength="30.3652" x="5" y="544.8828">User</text><ellipse cx="23.1826" cy="556.3359" fill="#E2E2F0" rx="8" ry="8" style="stroke:#181818;stroke-width:0.5;"/><path d="M23.1826,564.3359 L23.1826,591.3359 M10.1826,572.3359 L36.1826,572.3359 M23.1826,591.3359 L10.1826,606.3359 M23.1826,591.3359 L36.1826,606.3359" fill="none" style="stroke:#181818;stroke-width:0.5;"/></g><g class="participant participant-head" data-entity-uid="part2" data-qualified-name="Sq" id="part2-head"><rect fill="#E2E2F0" height="30.4883" rx="2.5" ry="2.5" style="stroke:#181818;stroke-width:0.5;" width="88.8604" x="51.3652" y="87.4883"/><text fill="#000000" font-family="sans-serif" font-size="14" lengthAdjust="spacing" textLength="74.8604" x="58.3652" y="108.0234">.square div</text></g><g class="participant participant-tail" data-entity-uid="part2" data-qualified-name="Sq" id="part2-tail"><rect fill="#E2E2F0" height="30.4883" rx="2.5" ry="2.5" style="stroke:#181818;stroke-width:0.5;" width="88.8604" x="51.3652" y="531.3477"/><text fill="#000000" font-family="sans-serif" font-size="14" lengthAdjust="spacing" textLength="74.8604" x="58.3652" y="551.8828">.square div</text></g><g class="participant participant-head" data-entity-uid="part3" data-qualified-name="UI" id="part3-head"><rect fill="#E2E2F0" height="30.4883" rx="2.5" ry="2.5" style="stroke:#181818;stroke-width:0.5;" width="43.5381" x="177.2261" y="87.4883"/><text fill="#000000" font-family="sans-serif" font-size="14" lengthAdjust="spacing" textLength="29.5381" x="184.2261" y="108.0234">ui.ts</text></g><g class="participant participant-tail" data-entity-uid="part3" data-qualified-name="UI" id="part3-tail"><rect fill="#E2E2F0" height="30.4883" rx="2.5" ry="2.5" style="stroke:#181818;stroke-width:0.5;" width="43.5381" x="177.2261" y="531.3477"/><text fill="#000000" font-family="sans-serif" font-size="14" lengthAdjust="spacing" textLength="29.5381" x="184.2261" y="551.8828">ui.ts</text></g><g class="participant participant-head" data-entity-uid="part4" data-qualified-name="Game" id="part4-head"><rect fill="#E2E2F0" height="30.4883" rx="2.5" ry="2.5" style="stroke:#181818;stroke-width:0.5;" width="83.0771" x="442.7681" y="87.4883"/><text fill="#000000" font-family="sans-serif" font-size="14" lengthAdjust="spacing" textLength="69.0771" x="449.7681" y="108.0234">TicTacToe</text></g><g class="participant participant-tail" data-entity-uid="part4" data-qualified-name="Game" id="part4-tail"><rect fill="#E2E2F0" height="30.4883" rx="2.5" ry="2.5" style="stroke:#181818;stroke-width:0.5;" width="83.0771" x="442.7681" y="531.3477"/><text fill="#000000" font-family="sans-serif" font-size="14" lengthAdjust="spacing" textLength="69.0771" x="449.7681" y="551.8828">TicTacToe</text></g><g class="message" data-entity-1="part1" data-entity-2="part2" id="msg1"><polygon fill="#181818" points="83.7954,146.2871,93.7954,150.2871,83.7954,154.2871,87.7954,150.2871" style="stroke:#181818;stroke-width:1;"/><line style="stroke:#181818;stroke-width:1;" x1="23.1826" x2="89.7954" y1="150.2871" y2="150.2871"/><text fill="#000000" font-family="sans-serif" font-size="13" lengthAdjust="spacing" textLength="28.4312" x="30.1826" y="145.5449">click</text></g><g class="message" data-entity-1="part2" data-entity-2="part3" id="msg2"><polygon fill="#181818" points="186.9951,175.5977,196.9951,179.5977,186.9951,183.5977,190.9951,179.5977" style="stroke:#181818;stroke-width:1;"/><line style="stroke:#181818;stroke-width:1;" x1="95.7954" x2="192.9951" y1="179.5977" y2="179.5977"/><text fill="#000000" font-family="sans-serif" font-size="13" lengthAdjust="spacing" textLength="79.1997" x="102.7954" y="174.8555">attempt(cell)</text></g><g class="message" data-entity-1="part3" data-entity-2="part4" id="msg3"><polygon fill="#181818" points="472.3066,204.9082,482.3066,208.9082,472.3066,212.9082,476.3066,208.9082" style="stroke:#181818;stroke-width:1;"/><line style="stroke:#181818;stroke-width:1;" x1="198.9951" x2="478.3066" y1="208.9082" y2="208.9082"/><text fill="#000000" font-family="sans-serif" font-size="13" lengthAdjust="spacing" textLength="55.7832" x="205.9951" y="204.166">play(cell)</text></g><path d="M157.2261,223.9082 L219.3647,223.9082 L219.3647,231.2188 L209.3647,241.2188 L157.2261,241.2188 L157.2261,223.9082" fill="#EEEEEE" style="stroke:#000000;stroke-width:1.5;"/><rect fill="none" height="291.4395" style="stroke:#000000;stroke-width:1.5;" width="672.9023" x="157.2261" y="223.9082"/><text fill="#000000" font-family="sans-serif" font-size="13" font-weight="bold" lengthAdjust="spacing" textLength="17.1387" x="172.2261" y="237.4766">alt</text><text fill="#000000" font-family="sans-serif" font-size="11" font-weight="bold" lengthAdjust="spacing" textLength="219.1245" x="234.3647" y="236.543">[cell out of range / taken / game over]</text><g class="message" data-entity-1="part4" data-entity-2="part3" id="msg4"><polygon fill="#181818" points="209.9951,258.5293,199.9951,262.5293,209.9951,266.5293,205.9951,262.5293" style="stroke:#181818;stroke-width:1;"/><line style="stroke:#181818;stroke-width:1;stroke-dasharray:2,2;" x1="203.9951" x2="483.3066" y1="262.5293" y2="262.5293"/><text fill="#000000" font-family="sans-serif" font-size="13" lengthAdjust="spacing" textLength="108.3862" x="215.9951" y="257.7871">{ok:false, reason}</text></g><g class="message" data-entity-1="part3" data-entity-2="part3" id="msg5"><line style="stroke:#181818;stroke-width:1;" x1="198.9951" x2="240.9951" y1="291.8398" y2="291.8398"/><line style="stroke:#181818;stroke-width:1;" x1="240.9951" x2="240.9951" y1="291.8398" y2="304.8398"/><line style="stroke:#181818;stroke-width:1;" x1="199.9951" x2="240.9951" y1="304.8398" y2="304.8398"/><polygon fill="#181818" points="209.9951,300.8398,199.9951,304.8398,209.9951,308.8398,205.9951,304.8398" style="stroke:#181818;stroke-width:1;"/><text fill="#000000" font-family="sans-serif" font-size="13" lengthAdjust="spacing" textLength="271.3115" x="205.9951" y="287.0977">message.textContent = "Invalid: ${reason}"</text></g><line style="stroke:#000000;stroke-width:1;stroke-dasharray:2,2;" x1="157.2261" x2="830.1284" y1="313.8398" y2="313.8398"/><text fill="#000000" font-family="sans-serif" font-size="11" font-weight="bold" lengthAdjust="spacing" textLength="69.7651" x="162.2261" y="324.4746">[legal move]</text><g class="message" data-entity-1="part4" data-entity-2="part4" id="msg6"><line style="stroke:#181818;stroke-width:1;" x1="484.3066" x2="526.3066" y1="349.1055" y2="349.1055"/><line style="stroke:#181818;stroke-width:1;" x1="526.3066" x2="526.3066" y1="349.1055" y2="362.1055"/><line style="stroke:#181818;stroke-width:1;" x1="485.3066" x2="526.3066" y1="362.1055" y2="362.1055"/><polygon fill="#181818" points="495.3066,358.1055,485.3066,362.1055,495.3066,366.1055,491.3066,362.1055" style="stroke:#181818;stroke-width:1;"/><text fill="#000000" font-family="sans-serif" font-size="13" lengthAdjust="spacing" textLength="326.8218" x="491.3066" y="344.3633">place mark, find winning line OR tie OR swap player</text></g><g class="message" data-entity-1="part4" data-entity-2="part3" id="msg7"><polygon fill="#181818" points="209.9951,387.416,199.9951,391.416,209.9951,395.416,205.9951,391.416" style="stroke:#181818;stroke-width:1;"/><line style="stroke:#181818;stroke-width:1;stroke-dasharray:2,2;" x1="203.9951" x2="483.3066" y1="391.416" y2="391.416"/><text fill="#000000" font-family="sans-serif" font-size="13" lengthAdjust="spacing" textLength="100.0962" x="215.9951" y="386.6738">{ok:true, status}</text></g><g class="message" data-entity-1="part3" data-entity-2="part3" id="msg8"><line style="stroke:#181818;stroke-width:1;" x1="198.9951" x2="240.9951" y1="420.7266" y2="420.7266"/><line style="stroke:#181818;stroke-width:1;" x1="240.9951" x2="240.9951" y1="420.7266" y2="433.7266"/><line style="stroke:#181818;stroke-width:1;" x1="199.9951" x2="240.9951" y1="433.7266" y2="433.7266"/><polygon fill="#181818" points="209.9951,429.7266,199.9951,433.7266,209.9951,437.7266,205.9951,433.7266" style="stroke:#181818;stroke-width:1;"/><text fill="#000000" font-family="sans-serif" font-size="13" lengthAdjust="spacing" textLength="176.1411" x="205.9951" y="415.9844">re-render board + message</text></g><path d="M167.2261,448.7266 L229.3647,448.7266 L229.3647,456.0371 L219.3647,466.0371 L167.2261,466.0371 L167.2261,448.7266" fill="#EEEEEE" style="stroke:#000000;stroke-width:1.5;"/><rect fill="none" height="59.6211" style="stroke:#000000;stroke-width:1.5;" width="248.4668" x="167.2261" y="448.7266"/><text fill="#000000" font-family="sans-serif" font-size="13" font-weight="bold" lengthAdjust="spacing" textLength="17.1387" x="182.2261" y="462.2949">alt</text><text fill="#000000" font-family="sans-serif" font-size="11" font-weight="bold" lengthAdjust="spacing" textLength="120.6455" x="244.3647" y="461.3613">[status.kind = "won"]</text><g class="message" data-entity-1="part3" data-entity-2="part3" id="msg9"><line style="stroke:#181818;stroke-width:1;" x1="198.9951" x2="240.9951" y1="487.3477" y2="487.3477"/><line style="stroke:#181818;stroke-width:1;" x1="240.9951" x2="240.9951" y1="487.3477" y2="500.3477"/><line style="stroke:#181818;stroke-width:1;" x1="199.9951" x2="240.9951" y1="500.3477" y2="500.3477"/><polygon fill="#181818" points="209.9951,496.3477,199.9951,500.3477,209.9951,504.3477,205.9951,500.3477" style="stroke:#181818;stroke-width:1;"/><text fill="#000000" font-family="sans-serif" font-size="13" lengthAdjust="spacing" textLength="197.6978" x="205.9951" y="482.6055">add .winning-line to the 3 cells</text></g><?plantuml-src RL51JiCm4Bpx5QE80uWc7BXLWWi7r1CIRH-m9DjWnR5JUzE2AYGUmGjv2PiqbIZYODdQsPsT6OiLnrZojcTVChu_lz0vUkU8bXfE8BHXnyQanlgE8hL8hrI5lVKrDkIIGbHAY5WdZaOxn9Qs8o_8YhJjAJ8gkyj02SljETxRGjA8h1VdoCgMAofNWKVqaLhTCl0ZlrSMp54wMpP6drfOBxH08jnsSbcoSrT6ImeCSmeDTgOwES7mGkW5OOD8lcRSGDIgrxiU9jHkD3XEvoV-GsZcezqP8bCA_aDRZcj6lEMKgEP2-4qUWXTM6tV85dv7pbPpN1ociSomii1nJUuOxMdLRy7w4ot5PeQDzHKqR3_axQndF3r3x7YbFNNJP_shLsAlSfEGzEcFtCXvP5zfeY-1OeNham5j6q8w3XNDi5rjx8FF53cZeAf2CIdBHsKI8A-Csp7YfFswmUZv0G00?></g></svg>